# xmcd CD database file
#
# Track frame offsets:
#	150
#	13896
#	27241
#	37107
#	53551
#	66754
#	79900
#	99503
#	117320
#	130703
#	144906
#	156274
#
# Disc length: 2293 seconds
#
# Revision: 0
# Processed by: cddbd v1.5.2PL0 Copyright (c) Steve Scherf et al.
# Submitted via: NeoAudio 9.9.9
#
DISCID=9c08f30c
DTITLE=get up and dance wkshop 47 - get up and dance wkshop 47
DYEAR=2006
DGENRE=Country
TTITLE0=Walking Backwards
TTITLE1=Take Me Home/Picking Trash
TTITLE2=Skifflebilly Hop
TTITLE3=Everybody's Someone
TTITLE4=Cajun Hustle
TTITLE5=Blue California
TTITLE6=Back Again x
TTITLE7=A Fine Place To Start
TTITLE8=Beautiful Sunday
TTITLE9=Bicycle Walz x
TTITLE10=Jazzie Joe's
TTITLE11=Beautiful Boy
EXTD=YEAR: 2006
EXTT0=
EXTT1=
EXTT2=
EXTT3=
EXTT4=
EXTT5=
EXTT6=
EXTT7=
EXTT8=
EXTT9=
EXTT10=
EXTT11=
PLAYORDER=
